<svg width="200px"  height="200px"  xmlns="http://www.w3.org/2000/svg" viewBox="0 0 100 100" preserveAspectRatio="xMidYMid" class="lds-rolling" style="background: none;">
  <circle cx="50" cy="50" fill="none" stroke="#3399d7" stroke-width="10" r="35" stroke-dasharray="164.93361431346415 56.97787143782138" transform="rotate(30 50 50)">
    <animateTransform attributeName="transform" type="rotate" calcMode="linear" values="0 50 50;360 50 50" keyTimes="0;1" dur="1s" begin="0s" repeatCount="indefinite">
    </animateTransform>
  </circle>
  <path
    style="fill:#3399d7;stroke-width:0.26458332" transform="translate(29,27)"
    d="m 28.671284,39.135198 c 2.31471,-1.18276 2.25437,-0.89134 2.25437,-10.88792 v -8.79859 l -0.72305,-0.94797 c -1.36315,-1.78717 -1.63602,-1.82128 -13.87274,-1.73418 l -10.8880701,0.0775 -1.01641,0.81779 c -1.78366,1.43512 -1.8009,1.5241 -1.89237,9.76554 -0.0452,4.07459 -0.007,7.92362 0.0855,8.55342 0.21339,1.45737 1.56714,3.01274 2.99437,3.44035 0.71225,0.2134 4.26803,0.30936 11.4629701,0.30936 10.29515,0 10.44554,-0.008 11.59548,-0.59531 z m -12.80798,-5.6413 c -0.29263,-0.29262 -0.41578,-0.92478 -0.41578,-2.13432 0,-1.46396 -0.10697,-1.85879 -0.72212,-2.66529 -1.32745,-1.74038 -0.69162,-3.98853 1.30373,-4.60971 2.68012,-0.83436 4.79596,2.33924 2.99027,4.48518 -0.55437,0.65883 -0.66146,1.05952 -0.66146,2.47497 0,1.9269 -0.47519,2.86495 -1.45131,2.86495 -0.34516,0 -0.81466,-0.1871 -1.04333,-0.41578 z m 23.7495,-15.37103 c 0.32074,-0.32074 0.17397,-5.48021 -0.20703,-7.27789 -1.25488,-5.9208004 -5.86103,-9.1822204 -11.52283,-8.1588204 -5.09942,0.92175 -8.19298,5.23958 -8.20055,11.4459104 l -0.002,1.25677 h 2.11666 2.11667 v -1.1776 c 0,-3.15335 1.11769,-5.7144204 2.95062,-6.7610104 1.38448,-0.79054 4.0816,-0.89173 5.38376,-0.20199 2.30423,1.22053 3.06736,3.0273804 3.24268,7.6775804 l 0.12718,3.37344 h 1.90899 c 1.04995,0 1.98837,-0.0794 2.08538,-0.17639 z"
    />
</svg>
