<?xml version="1.0" standalone="no"?>
<!DOCTYPE svg PUBLIC "-//W3C//DTD SVG 20010904//EN"
 "http://www.w3.org/TR/2001/REC-SVG-20010904/DTD/svg10.dtd">
<svg version="1.0" xmlns="http://www.w3.org/2000/svg"
 width="576.000000pt" height="576.000000pt" viewBox="0 0 576.000000 576.000000"
 preserveAspectRatio="xMidYMid meet">
<metadata>
Created by potrace 1.11, written by Peter Selinger 2001-2013
</metadata>
<g transform="translate(0.000000,576.000000) scale(0.100000,-0.100000)"
fill="#000000" stroke="none">
<path d="M0 2880 l0 -2880 2880 0 2880 0 0 2880 0 2880 -2880 0 -2880 0 0
-2880z m4598 1460 c803 0 1012 -3 1012 -12 0 -7 -182 -359 -403 -783 l-403
-770 -1830 4 c-1006 2 -2054 6 -2330 10 l-500 6 380 779 381 778 1340 -6 c737
-3 1796 -6 2353 -6z"/>
<path d="M1317 4015 c-50 -19 -119 -69 -148 -108 -13 -18 -92 -171 -176 -340
-128 -259 -153 -316 -153 -353 0 -57 30 -90 91 -99 24 -4 170 -5 324 -3 l280
3 57 28 c76 38 131 93 173 177 l35 70 -88 0 c-86 0 -89 -1 -118 -31 -54 -57
-65 -59 -288 -59 -173 0 -207 2 -220 16 -9 8 -16 21 -16 29 0 27 209 431 236
457 47 43 73 48 279 48 213 0 225 -3 225 -61 l0 -29 89 0 88 0 32 68 c40 89
41 134 2 173 l-29 29 -319 -1 c-245 0 -327 -4 -356 -14z"/>
<path d="M2112 3573 l-451 -458 86 -3 85 -3 54 51 53 50 218 -2 218 -3 3 -47
3 -48 88 0 89 0 4 458 c3 251 4 458 3 460 -2 1 -205 -203 -453 -455z m268 -53
l0 -130 -132 0 -133 0 130 130 c71 72 131 130 132 130 2 0 3 -58 3 -130z"/>
<path d="M3107 4015 c-55 -21 -121 -71 -157 -121 -17 -24 -56 -96 -86 -160
-62 -133 -68 -176 -30 -221 l24 -28 271 -5 c291 -5 290 -5 291 -57 0 -27 -52
-88 -91 -109 -22 -11 -74 -14 -233 -14 -228 0 -243 4 -231 61 l7 29 -89 0 -89
0 -32 -65 c-59 -119 -37 -196 59 -210 24 -4 170 -5 324 -3 l280 3 57 28 c92
45 131 91 209 250 61 123 70 147 65 182 -3 26 -14 48 -31 62 -26 22 -32 23
-264 23 -131 0 -253 3 -271 6 -57 12 -58 68 -2 128 48 51 74 56 286 56 214 0
226 -3 226 -61 l0 -29 89 0 88 0 32 68 c40 89 41 134 2 173 l-29 29 -319 -1
c-245 0 -327 -4 -356 -14z"/>
<path d="M3973 3988 c-12 -24 -113 -231 -226 -460 l-206 -418 447 0 447 0 48
95 47 95 -355 0 c-195 0 -355 2 -355 5 0 3 19 43 42 90 l42 85 268 0 268 0 45
90 45 90 -265 0 c-146 0 -265 2 -265 5 0 3 20 46 45 95 l45 90 358 0 358 0 42
85 c23 47 42 87 42 90 0 3 -202 5 -448 5 l-448 0 -21 -42z"/>
</g>
</svg>
